# xmcd
#
# Track frame offsets:
#	150
#	22354
#	35808
#	58126
#	81810
#	104980
#	127453
#
# Disc length: 2134 seconds
#
# Revision: 1
# Processed by: cddbd v1.5.1PL0 Copyright (c) Steve Scherf et al.
# Submitted via: dBpowerAMP V4.0
#
DISCID=73085407
DTITLE=Oaktown Jazz Workshops - Oaktown Jazz
DYEAR=1998
DGENRE=Jazz
TTITLE0=Anything You Want it to Be
TTITLE1=Don't Know Don't Care
TTITLE2=Romanisong
TTITLE3=A Few Sandwiches Short of a Picnic
TTITLE4=Just Strut
TTITLE5=Serena
TTITLE6=Prelude in E Minor
EXTD=
EXTT0=
EXTT1=
EXTT2=
EXTT3=
EXTT4=
EXTT5=
EXTT6=
PLAYORDER=
